<mxfile host="app.diagrams.net" modified="2023-10-27T22:51:12.941Z" agent="Mozilla/5.0 (Windows NT 10.0; Win64; x64) AppleWebKit/537.36 (KHTML, like Gecko) Chrome/118.0.0.0 Safari/537.36" etag="VxOdgVYgyCW7CL-O_4Gl" version="22.0.8" type="github">
  <diagram name="Страница — 1" id="0Vf-Q7PDjt9Xlpkar4Qm">
    <mxGraphModel dx="1216" dy="1703" grid="1" gridSize="10" guides="1" tooltips="1" connect="1" arrows="1" fold="1" page="1" pageScale="1" pageWidth="827" pageHeight="1169" math="0" shadow="0">
      <root>
        <mxCell id="0" />
        <mxCell id="1" parent="0" />
        <mxCell id="A3GNWENZTj7qenz54R3v-1" value="&lt;font style=&quot;vertical-align: inherit;&quot;&gt;&lt;font style=&quot;vertical-align: inherit;&quot;&gt;Главарь&lt;/font&gt;&lt;/font&gt;" style="shape=umlActor;verticalLabelPosition=bottom;verticalAlign=top;html=1;" parent="1" vertex="1">
          <mxGeometry x="350" y="380" width="30" height="60" as="geometry" />
        </mxCell>
        <mxCell id="A3GNWENZTj7qenz54R3v-2" value="&lt;font style=&quot;vertical-align: inherit;&quot;&gt;&lt;font style=&quot;vertical-align: inherit;&quot;&gt;Шестёрка&lt;/font&gt;&lt;/font&gt;" style="shape=umlActor;verticalLabelPosition=bottom;verticalAlign=top;html=1;" parent="1" vertex="1">
          <mxGeometry x="350" y="110" width="30" height="60" as="geometry" />
        </mxCell>
        <mxCell id="A3GNWENZTj7qenz54R3v-5" value="" style="endArrow=block;endSize=16;endFill=0;html=1;rounded=0;entryX=0.533;entryY=0.789;entryDx=0;entryDy=0;entryPerimeter=0;exitX=0.5;exitY=0;exitDx=0;exitDy=0;exitPerimeter=0;" parent="1" edge="1" source="A3GNWENZTj7qenz54R3v-1">
          <mxGeometry width="160" relative="1" as="geometry">
            <mxPoint x="364.5" y="280" as="sourcePoint" />
            <mxPoint x="365.49" y="157.34000000000003" as="targetPoint" />
          </mxGeometry>
        </mxCell>
        <mxCell id="A3GNWENZTj7qenz54R3v-6" value="Вход в аккаунт" style="ellipse;whiteSpace=wrap;html=1;" parent="1" vertex="1">
          <mxGeometry x="40" y="105" width="140" height="70" as="geometry" />
        </mxCell>
        <mxCell id="A3GNWENZTj7qenz54R3v-7" value="Просмотр проектов" style="ellipse;whiteSpace=wrap;html=1;" parent="1" vertex="1">
          <mxGeometry x="554" y="105" width="140" height="70" as="geometry" />
        </mxCell>
        <mxCell id="A3GNWENZTj7qenz54R3v-8" value="Управление ролями и правами доступа пользователей" style="ellipse;whiteSpace=wrap;html=1;" parent="1" vertex="1">
          <mxGeometry x="140" y="370" width="140" height="70" as="geometry" />
        </mxCell>
        <mxCell id="A3GNWENZTj7qenz54R3v-9" value="Работа с задачей" style="ellipse;whiteSpace=wrap;html=1;" parent="1" vertex="1">
          <mxGeometry x="694" y="375" width="140" height="70" as="geometry" />
        </mxCell>
        <mxCell id="h_QuswVP2u2MH1pptBLZ-21" style="edgeStyle=orthogonalEdgeStyle;rounded=0;orthogonalLoop=1;jettySize=auto;html=1;exitX=1;exitY=0.5;exitDx=0;exitDy=0;" edge="1" parent="1">
          <mxGeometry relative="1" as="geometry">
            <mxPoint x="580.4705882352941" y="409.9411764705883" as="targetPoint" />
            <mxPoint x="579.9999999999968" y="410" as="sourcePoint" />
          </mxGeometry>
        </mxCell>
        <mxCell id="A3GNWENZTj7qenz54R3v-13" value="" style="endArrow=none;html=1;rounded=0;exitX=0.5;exitY=0.5;exitDx=0;exitDy=0;exitPerimeter=0;" parent="1" source="A3GNWENZTj7qenz54R3v-1" edge="1">
          <mxGeometry width="50" height="50" relative="1" as="geometry">
            <mxPoint x="380" y="460" as="sourcePoint" />
            <mxPoint x="440" y="410" as="targetPoint" />
          </mxGeometry>
        </mxCell>
        <mxCell id="A3GNWENZTj7qenz54R3v-14" value="" style="endArrow=none;html=1;rounded=0;entryX=0.5;entryY=0.5;entryDx=0;entryDy=0;entryPerimeter=0;" parent="1" target="A3GNWENZTj7qenz54R3v-1" edge="1">
          <mxGeometry width="50" height="50" relative="1" as="geometry">
            <mxPoint x="280" y="410" as="sourcePoint" />
            <mxPoint x="350.71067811865476" y="405" as="targetPoint" />
          </mxGeometry>
        </mxCell>
        <mxCell id="A3GNWENZTj7qenz54R3v-18" value="" style="endArrow=none;html=1;rounded=0;entryX=0.5;entryY=0.5;entryDx=0;entryDy=0;entryPerimeter=0;" parent="1" source="A3GNWENZTj7qenz54R3v-6" target="A3GNWENZTj7qenz54R3v-2" edge="1">
          <mxGeometry width="50" height="50" relative="1" as="geometry">
            <mxPoint x="280" y="190" as="sourcePoint" />
            <mxPoint x="350.71067811865476" y="140" as="targetPoint" />
          </mxGeometry>
        </mxCell>
        <mxCell id="A3GNWENZTj7qenz54R3v-19" value="" style="endArrow=none;html=1;rounded=0;exitX=0.5;exitY=0.5;exitDx=0;exitDy=0;exitPerimeter=0;entryX=0;entryY=0.5;entryDx=0;entryDy=0;" parent="1" source="A3GNWENZTj7qenz54R3v-2" edge="1" target="A3GNWENZTj7qenz54R3v-7">
          <mxGeometry width="50" height="50" relative="1" as="geometry">
            <mxPoint x="390" y="190" as="sourcePoint" />
            <mxPoint x="420" y="140" as="targetPoint" />
          </mxGeometry>
        </mxCell>
        <mxCell id="A3GNWENZTj7qenz54R3v-20" value="" style="endArrow=none;html=1;rounded=0;exitX=0.5;exitY=0;exitDx=0;exitDy=0;exitPerimeter=0;" parent="1" source="A3GNWENZTj7qenz54R3v-2" edge="1">
          <mxGeometry width="50" height="50" relative="1" as="geometry">
            <mxPoint x="350" y="80" as="sourcePoint" />
            <mxPoint x="365" y="-30" as="targetPoint" />
            <Array as="points">
              <mxPoint x="365" y="-30" />
            </Array>
          </mxGeometry>
        </mxCell>
        <mxCell id="A3GNWENZTj7qenz54R3v-21" value="Удаление программы" style="ellipse;whiteSpace=wrap;html=1;" parent="1" vertex="1">
          <mxGeometry x="414" y="10" width="140" height="70" as="geometry" />
        </mxCell>
        <mxCell id="h_QuswVP2u2MH1pptBLZ-1" value="" style="endArrow=none;html=1;rounded=0;" edge="1" parent="1">
          <mxGeometry width="50" height="50" relative="1" as="geometry">
            <mxPoint x="250" y="190" as="sourcePoint" />
            <mxPoint x="250" y="140" as="targetPoint" />
          </mxGeometry>
        </mxCell>
        <mxCell id="h_QuswVP2u2MH1pptBLZ-2" value="Создание аккаунта" style="ellipse;whiteSpace=wrap;html=1;" vertex="1" parent="1">
          <mxGeometry x="180" y="190" width="140" height="70" as="geometry" />
        </mxCell>
        <mxCell id="h_QuswVP2u2MH1pptBLZ-3" value="" style="endArrow=none;html=1;rounded=0;exitX=0;exitY=0.5;exitDx=0;exitDy=0;" edge="1" parent="1" source="A3GNWENZTj7qenz54R3v-21">
          <mxGeometry width="50" height="50" relative="1" as="geometry">
            <mxPoint x="414" y="45" as="sourcePoint" />
            <mxPoint x="364" y="44.5" as="targetPoint" />
            <Array as="points">
              <mxPoint x="388" y="44.5" />
            </Array>
          </mxGeometry>
        </mxCell>
        <mxCell id="h_QuswVP2u2MH1pptBLZ-4" value="Запуск пргораммы" style="ellipse;whiteSpace=wrap;html=1;" vertex="1" parent="1">
          <mxGeometry x="295" y="-70" width="140" height="70" as="geometry" />
        </mxCell>
        <mxCell id="h_QuswVP2u2MH1pptBLZ-5" value="&amp;lt;&amp;lt;include&amp;gt;&amp;gt;" style="endArrow=open;endSize=12;dashed=1;html=1;rounded=0;entryX=0;entryY=0.5;entryDx=0;entryDy=0;" edge="1" parent="1" target="h_QuswVP2u2MH1pptBLZ-12">
          <mxGeometry width="160" relative="1" as="geometry">
            <mxPoint x="824" y="409.5" as="sourcePoint" />
            <mxPoint x="964" y="480" as="targetPoint" />
            <Array as="points" />
          </mxGeometry>
        </mxCell>
        <mxCell id="h_QuswVP2u2MH1pptBLZ-6" value="&amp;lt;&amp;lt;include&amp;gt;&amp;gt;" style="endArrow=open;endSize=12;dashed=1;html=1;rounded=0;entryX=0;entryY=0.5;entryDx=0;entryDy=0;" edge="1" parent="1" target="h_QuswVP2u2MH1pptBLZ-14">
          <mxGeometry width="160" relative="1" as="geometry">
            <mxPoint x="824" y="410" as="sourcePoint" />
            <mxPoint x="964" y="280" as="targetPoint" />
            <Array as="points" />
          </mxGeometry>
        </mxCell>
        <mxCell id="h_QuswVP2u2MH1pptBLZ-8" value="&amp;lt;&amp;lt;include&amp;gt;&amp;gt;" style="endArrow=open;endSize=12;dashed=1;html=1;rounded=0;entryX=0;entryY=0.5;entryDx=0;entryDy=0;" edge="1" parent="1" target="h_QuswVP2u2MH1pptBLZ-11">
          <mxGeometry width="160" relative="1" as="geometry">
            <mxPoint x="824" y="410" as="sourcePoint" />
            <mxPoint x="964" y="560" as="targetPoint" />
            <Array as="points" />
          </mxGeometry>
        </mxCell>
        <mxCell id="h_QuswVP2u2MH1pptBLZ-9" value="&amp;lt;&amp;lt;include&amp;gt;&amp;gt;" style="endArrow=open;endSize=12;dashed=1;html=1;rounded=0;entryX=0;entryY=0.5;entryDx=0;entryDy=0;" edge="1" parent="1" target="h_QuswVP2u2MH1pptBLZ-13">
          <mxGeometry width="160" relative="1" as="geometry">
            <mxPoint x="824" y="410" as="sourcePoint" />
            <mxPoint x="964" y="360" as="targetPoint" />
            <Array as="points" />
          </mxGeometry>
        </mxCell>
        <mxCell id="h_QuswVP2u2MH1pptBLZ-11" value="Отмечать выполненные задачи" style="ellipse;whiteSpace=wrap;html=1;" vertex="1" parent="1">
          <mxGeometry x="964" y="515" width="140" height="70" as="geometry" />
        </mxCell>
        <mxCell id="h_QuswVP2u2MH1pptBLZ-12" value="Удаление задачи" style="ellipse;whiteSpace=wrap;html=1;" vertex="1" parent="1">
          <mxGeometry x="964" y="430" width="140" height="70" as="geometry" />
        </mxCell>
        <mxCell id="h_QuswVP2u2MH1pptBLZ-13" value="Редактирование существующей задачи" style="ellipse;whiteSpace=wrap;html=1;" vertex="1" parent="1">
          <mxGeometry x="964" y="350" width="140" height="70" as="geometry" />
        </mxCell>
        <mxCell id="h_QuswVP2u2MH1pptBLZ-14" value="Создание новой задачи" style="ellipse;whiteSpace=wrap;html=1;" vertex="1" parent="1">
          <mxGeometry x="964" y="270" width="140" height="70" as="geometry" />
        </mxCell>
        <mxCell id="h_QuswVP2u2MH1pptBLZ-15" value="Добавление предложений к задаче" style="ellipse;whiteSpace=wrap;html=1;" vertex="1" parent="1">
          <mxGeometry x="413" y="190" width="140" height="70" as="geometry" />
        </mxCell>
        <mxCell id="h_QuswVP2u2MH1pptBLZ-16" value="" style="endArrow=none;html=1;rounded=0;entryX=0.5;entryY=0;entryDx=0;entryDy=0;" edge="1" parent="1" target="h_QuswVP2u2MH1pptBLZ-15">
          <mxGeometry width="50" height="50" relative="1" as="geometry">
            <mxPoint x="483" y="140" as="sourcePoint" />
            <mxPoint x="510" y="150" as="targetPoint" />
          </mxGeometry>
        </mxCell>
        <mxCell id="h_QuswVP2u2MH1pptBLZ-17" value="&amp;lt;&amp;lt;include&amp;gt;&amp;gt;" style="endArrow=open;endSize=12;dashed=1;html=1;rounded=0;exitX=1;exitY=0.5;exitDx=0;exitDy=0;" edge="1" parent="1" source="A3GNWENZTj7qenz54R3v-7">
          <mxGeometry width="160" relative="1" as="geometry">
            <mxPoint x="694" y="145" as="sourcePoint" />
            <mxPoint x="810" y="140" as="targetPoint" />
            <Array as="points" />
          </mxGeometry>
        </mxCell>
        <mxCell id="h_QuswVP2u2MH1pptBLZ-19" value="Просмотр задач" style="ellipse;whiteSpace=wrap;html=1;" vertex="1" parent="1">
          <mxGeometry x="810" y="105" width="140" height="70" as="geometry" />
        </mxCell>
        <mxCell id="h_QuswVP2u2MH1pptBLZ-20" value="&amp;lt;&amp;lt;include&amp;gt;&amp;gt;" style="endArrow=open;endSize=12;dashed=1;html=1;rounded=0;exitX=1;exitY=0.5;exitDx=0;exitDy=0;entryX=0;entryY=0.5;entryDx=0;entryDy=0;" edge="1" parent="1" source="h_QuswVP2u2MH1pptBLZ-24" target="A3GNWENZTj7qenz54R3v-9">
          <mxGeometry width="160" relative="1" as="geometry">
            <mxPoint x="579.9999999999968" y="410" as="sourcePoint" />
            <mxPoint x="670" y="360" as="targetPoint" />
            <Array as="points">
              <mxPoint x="626" y="409.41" />
            </Array>
          </mxGeometry>
        </mxCell>
        <mxCell id="h_QuswVP2u2MH1pptBLZ-24" value="Работа с проектом" style="ellipse;whiteSpace=wrap;html=1;" vertex="1" parent="1">
          <mxGeometry x="435" y="375" width="140" height="70" as="geometry" />
        </mxCell>
        <mxCell id="h_QuswVP2u2MH1pptBLZ-25" value="&amp;lt;&amp;lt;include&amp;gt;&amp;gt;" style="endArrow=open;endSize=12;dashed=1;html=1;rounded=0;entryX=0;entryY=0.5;entryDx=0;entryDy=0;exitX=1;exitY=0.5;exitDx=0;exitDy=0;" edge="1" target="h_QuswVP2u2MH1pptBLZ-30" parent="1" source="h_QuswVP2u2MH1pptBLZ-24">
          <mxGeometry width="160" relative="1" as="geometry">
            <mxPoint x="570" y="669.5" as="sourcePoint" />
            <mxPoint x="710" y="740" as="targetPoint" />
            <Array as="points" />
          </mxGeometry>
        </mxCell>
        <mxCell id="h_QuswVP2u2MH1pptBLZ-26" value="&amp;lt;&amp;lt;include&amp;gt;&amp;gt;" style="endArrow=open;endSize=12;dashed=1;html=1;rounded=0;entryX=0;entryY=0.5;entryDx=0;entryDy=0;exitX=1;exitY=0.5;exitDx=0;exitDy=0;" edge="1" target="h_QuswVP2u2MH1pptBLZ-32" parent="1" source="h_QuswVP2u2MH1pptBLZ-24">
          <mxGeometry width="160" relative="1" as="geometry">
            <mxPoint x="570" y="670" as="sourcePoint" />
            <mxPoint x="710" y="540" as="targetPoint" />
            <Array as="points" />
          </mxGeometry>
        </mxCell>
        <mxCell id="h_QuswVP2u2MH1pptBLZ-27" value="&amp;lt;&amp;lt;include&amp;gt;&amp;gt;" style="endArrow=open;endSize=12;dashed=1;html=1;rounded=0;entryX=0;entryY=0.5;entryDx=0;entryDy=0;" edge="1" target="h_QuswVP2u2MH1pptBLZ-29" parent="1">
          <mxGeometry width="160" relative="1" as="geometry">
            <mxPoint x="580" y="420" as="sourcePoint" />
            <mxPoint x="710" y="820" as="targetPoint" />
            <Array as="points" />
          </mxGeometry>
        </mxCell>
        <mxCell id="h_QuswVP2u2MH1pptBLZ-28" value="&amp;lt;&amp;lt;include&amp;gt;&amp;gt;" style="endArrow=open;endSize=12;dashed=1;html=1;rounded=0;entryX=0;entryY=0.5;entryDx=0;entryDy=0;exitX=1;exitY=0.5;exitDx=0;exitDy=0;" edge="1" target="h_QuswVP2u2MH1pptBLZ-31" parent="1" source="h_QuswVP2u2MH1pptBLZ-24">
          <mxGeometry width="160" relative="1" as="geometry">
            <mxPoint x="570" y="670" as="sourcePoint" />
            <mxPoint x="710" y="620" as="targetPoint" />
            <Array as="points" />
          </mxGeometry>
        </mxCell>
        <mxCell id="h_QuswVP2u2MH1pptBLZ-29" value="Отмечать выполненные проекты" style="ellipse;whiteSpace=wrap;html=1;" vertex="1" parent="1">
          <mxGeometry x="694" y="705" width="140" height="70" as="geometry" />
        </mxCell>
        <mxCell id="h_QuswVP2u2MH1pptBLZ-30" value="Удаление проекта" style="ellipse;whiteSpace=wrap;html=1;" vertex="1" parent="1">
          <mxGeometry x="694" y="620" width="140" height="70" as="geometry" />
        </mxCell>
        <mxCell id="h_QuswVP2u2MH1pptBLZ-31" value="Редактирование существующего проекта" style="ellipse;whiteSpace=wrap;html=1;" vertex="1" parent="1">
          <mxGeometry x="694" y="540" width="140" height="70" as="geometry" />
        </mxCell>
        <mxCell id="h_QuswVP2u2MH1pptBLZ-32" value="Создание нового проекта" style="ellipse;whiteSpace=wrap;html=1;" vertex="1" parent="1">
          <mxGeometry x="694" y="460" width="140" height="70" as="geometry" />
        </mxCell>
      </root>
    </mxGraphModel>
  </diagram>
</mxfile>
